<svg version="1.2" xmlns="http://www.w3.org/2000/svg" viewBox="0 0 117 26" width="117" height="26">
	<title>czday yellow-01-svg</title>
	<style>
		.s0 { fill: #ebc01a } 
		.s1 { fill: #ebc11b } 
		.s2 { fill: #ecc425 } 
	</style>
	<g id="Layer">
		<path id="Layer" class="s0" d="m15.4 18.8c-1 3.1-3.4 5.1-7 5.1-4.6 0-7.7-3.3-7.7-7.9 0-4.6 3.1-7.9 7.7-7.9 3.7 0 6.5 2.1 7.4 5.4h-3.7c-0.7-1.5-1.9-2.4-3.7-2.4-2.7 0-4.3 2.1-4.3 4.9 0 2.8 1.6 4.9 4.3 4.9 1.7 0 3.1-0.7 3.8-2.1z"/>
		<path id="Layer" class="s0" d="m14.5 23.6v-15.3h3.2v6.1h6.4v-6.1h3.2v15.3h-3.2v-6.3h-6.4v6.3z"/>
		<path id="Layer" class="s0" d="m26.2 17.5v-9.2h3.2v9c0 2.3 0.8 3.6 3.2 3.6 2.4 0 3.2-1.3 3.2-3.6v-9h3.2v9.2c0 3.7-1.9 6.3-6.4 6.3-4.5 0-6.4-2.5-6.4-6.3z"/>
		<path id="Layer" class="s0" d="m37.7 23.6l6.2-12.4h-7.8v-2.9h12.4l-0.6 2.7-4.8 9.7h5.6v2.9z"/>
		<path id="Layer" class="s0" d="m47.9 23.6v-15.3h11v2.9h-7.8v3.2h6.2v2.9h-6.2v3.5h7.8v2.9h-11z"/>
		<path id="Layer" fill-rule="evenodd" class="s0" d="m58.8 23.6v-15.3h6.2c4.7 0 7.8 3.2 7.8 7.7 0 4.4-3 7.6-7.8 7.6zm3.1-2.9h3.1c2.8 0 4.5-2.1 4.5-4.7 0-2.7-1.7-4.7-4.5-4.7h-3.1z"/>
		<path id="Layer" fill-rule="evenodd" class="s0" d="m83.3 23.6l-1.1-2.9h-6.6l-1.1 2.9h-3.4l6-15.3h3.5l6 15.3zm-6.6-5.8h4.4l-2.2-5.8z"/>
		<path id="Layer" class="s0" d="m95.7 8.3h3.5l-5.7 7.7v7.6h-3.2v-7.6l-5.8-7.7h3.8l3.8 5.1z"/>
		<path id="Layer" fill-rule="evenodd" class="s1" d="m112.5 19.2c-0.1 0.1-0.1 0.1-0.1 0.2 0.4 1.1 0.8 2 0.9 2.3 0 0.1 0 0.2-0.1 0.2l-10.8 4.1c-0.1 0-0.2 0-0.2-0.1-0.2-0.7-1.7-4.7-2.4-6.4-0.5-1.3-1-2.5-1.3-3.8-0.5-2-0.1-3.8 1.1-5.4 0.1-0.2 0.3-0.3 0.5-0.5 1.4-1.3 3.9-2.2 6.1-1.1 1.6 0.7 2.8 2 3.5 3.8 0.2 0.4 0.3 0.8 0.5 1.3 0.1 0.1 0.1 0.1 0.2 0.1l1.2-0.5 0.6-0.2 1.4-0.5 0.4-0.2c0.1 0 0.2 0 0.2 0.1l1.8 4.7 0.2 0.4c0 0.1 0 0.2-0.1 0.2zm1.2-5.9l-1.2 0.5c-0.1 0.1-0.1 0.1-0.1 0.2l1.5 4c0.1 0.1 0.1 0.1 0.2 0.1l1.2-0.5c0.1-0.1 0.1-0.1 0.1-0.2l-1.5-4c0-0.1-0.1-0.1-0.2-0.1zm-2.1 0.8l-1.1 0.4c-0.1 0.1-0.1 0.1-0.1 0.2 0.5 1.3 1.1 2.7 1.6 4 0.1 0.1 0.1 0.1 0.2 0.1l1.1-0.4c0.1-0.1 0.1-0.1 0.1-0.2l-1.5-4c0-0.1-0.1-0.1-0.3-0.1zm-7.1-5c-0.1-0.1-0.2 0.1-0.1 0.2 0.7 0.5 1.2 1.1 1.7 2q0.3 0.3 0.6 1.2c0.1 0.1 0.1 0.1 0.2 0.1l1.7-0.6c0.1 0 0.1-0.1 0.1-0.2 0-0.1-0.1-0.2-0.1-0.2-1-1.5-2.4-2.4-4.1-2.5zm-1.8 0.1c-0.2 0-0.2 0.1-0.2 0.2l1.6 4.1c0.1 0.1 0.1 0.1 0.2 0.1l1.8-0.7c0.1 0 0.1-0.1 0.1-0.2-0.2-0.5-0.4-1-0.6-1.3-0.5-0.8-1.2-1.6-2-2-0.3-0.1-0.5-0.1-0.9-0.2zm-1 0.4c-0.9 1-0.6 3.2-0.2 4.9 0 0.1 0.1 0.1 0.2 0.1l1.8-0.7c0.1-0.1 0.1-0.1 0.1-0.2l-1.6-4.1c0-0.1-0.2-0.1-0.3 0zm-1.4 1c-1.1 1.2-1.4 2.9-1.1 4.7 0 0.1 0.1 0.1 0.2 0.1l1.4-0.5c0.1-0.1 0.1-0.1 0.1-0.2-0.4-1.3-0.6-2.8-0.4-4 0-0.1-0.1-0.2-0.2-0.1zm4 13.9c0.1-0.1 0.1-0.1 0.1-0.2l-2.7-7.2c0 0-0.3-0.7-0.6-1.6 0-0.1-0.1-0.1-0.2-0.1l-1.5 0.6c-0.1 0.1-0.1 0.1-0.1 0.2q0.2 0.4 0.3 0.9c0.1 0.2 2.6 7 3 8 0.1 0.1 0.1 0.1 0.2 0.1zm2.8-0.9c0.1-0.1 0.1-0.1 0.1-0.2l-2.8-7.3-0.6-1.6c-0.1-0.1-0.1-0.1-0.2-0.1l-1.8 0.7c-0.1 0.1-0.1 0.1-0.1 0.2 0.3 0.9 0.6 1.6 0.6 1.6l2.8 7.3c0.1 0.1 0.1 0.1 0.2 0.1zm2.8-1.1c0.1-0.1 0.1-0.1 0.1-0.2l-2.8-7.3c0 0-0.3-0.8-0.7-1.6-0.1-0.1-0.1-0.1-0.2-0.1l-1.8 0.7c-0.1 0.1-0.1 0.1-0.1 0.2l0.6 1.6 2.8 7.3c0.1 0.1 0.1 0.1 0.2 0.1zm0.9-0.2l1.6-0.6c0.1-0.1 0.1-0.1 0.1-0.2l-2.8-7.3c0 0-0.3-0.9-0.6-1.6-0.1-0.1-0.1-0.1-0.2-0.1l-1.7 0.6c-0.1 0.1-0.1 0.1-0.1 0.2 1.2 3 3.2 8 3.5 8.8 0 0.1 0.1 0.1 0.2 0.2z"/>
		<path id="Layer" fill-rule="evenodd" class="s2" d="m113.4 0.8q0.3 0 0.6 0c0.3 0 0.5 0.3 0.3 0.6-0.4 0.6-0.3 1.1-0.1 1.8 0.5 1.5-0.2 3-1.7 3.6-1.1 0.4-2.3 0.4-3.4 0-0.1 0-0.2-0.1-0.2-0.1-0.2-0.2-0.2-0.5 0-0.6 0.1-0.1 0.3-0.1 0.4-0.2 0.2-0.1 0.3-0.2 0.5-0.3q0.1-0.1 0-0.3-0.2-0.1-0.3-0.3c-0.4-0.7-0.5-1.4-0.5-2.2 0-0.4 0.3-0.5 0.7-0.4 0.1 0.1 0.3 0.2 0.4 0.3 0.3 0.2 0.6 0.3 1 0.4 0.2 0 0.4 0.1 0.6 0 0.2-0.1 0-0.3 0-0.5-0.2-0.8 0.3-1.4 1.1-1.5 0.1-0.3 0.3-0.2 0.6-0.3zm-2.4 5c-0.1 0-0.3-0.1-0.5 0-0.1 0-0.1 0.1-0.1 0.2 0 0.1 0.1 0.1 0.1 0.1 0.9 0.2 1.8 0 2.5-0.6 0.3-0.3 0.5-0.6 0.5-1.1 0-0.4 0-0.9-0.2-1.3-0.2-0.4-0.3-0.8-0.2-1.2 0-0.1 0-0.1-0.1-0.2-0.1-0.1-0.4 0-0.5 0.1-0.1 0.1-0.1 0.2-0.1 0.3 0.1 0.2 0.2 0.4 0.2 0.7 0.1 0.4 0 0.7-0.4 0.8-0.1 0.1-0.3 0.1-0.5 0.2-0.4 0.1-0.8 0-1.1-0.1-0.2-0.1-0.4-0.2-0.6-0.2-0.1 0-0.2 0.1-0.2 0.2 0.1 0.7 0.6 1.2 1.3 1.3q0.1 0 0.3 0c0.2 0.1 0.3 0.3 0.3 0.4 0 0.2-0.2 0.4-0.4 0.4q0 0-0.3 0z"/>
	</g>
</svg>