<svg xmlns="http://www.w3.org/2000/svg" width="64" height="64" viewBox="0 0 64 64">
  <g id="people" transform="translate(0.28 0.28)">
    <rect id="Rectangle_116" data-name="Rectangle 116" width="64" height="64" transform="translate(-0.28 -0.28)" fill="#fff" opacity="0"/>
    <path id="Path_40" data-name="Path 40" d="M15.5,24A10.5,10.5,0,1,0,5,13.5,10.5,10.5,0,0,0,15.5,24Zm0-15.752A5.251,5.251,0,1,1,10.251,13.5,5.251,5.251,0,0,1,15.5,8.251Z" transform="translate(8.342 5.091)" fill="#fff"/>
    <path id="Path_41" data-name="Path 41" d="M21.876,22.752A7.876,7.876,0,1,0,14,14.876,7.876,7.876,0,0,0,21.876,22.752Zm0-10.5a2.625,2.625,0,1,1-2.625,2.625A2.625,2.625,0,0,1,21.876,12.251Z" transform="translate(22.971 11.593)" fill="#fff"/>
    <path id="Path_42" data-name="Path 42" d="M41.381,15.61a13.127,13.127,0,0,0-8.034,2.757A18.378,18.378,0,0,0,2,31.363a2.625,2.625,0,1,0,5.251,0,13.127,13.127,0,0,1,26.254,0,2.625,2.625,0,1,0,5.251,0,18.115,18.115,0,0,0-2.258-8.8,7.876,7.876,0,0,1,12.759,6.17,2.625,2.625,0,1,0,5.251,0A13.127,13.127,0,0,0,41.381,15.61Z" transform="translate(3.466 21.36)" fill="#fff"/>
  </g>
</svg>
